<svg id="visual" viewBox="0 0 1440 700" width="1440" height="700" xmlns="http://www.w3.org/2000/svg" xmlns:xlink="http://www.w3.org/1999/xlink" version="1.1"><rect x="0" y="0" width="1440" height="700" fill="#eef0f0"></rect><path d="M0 265L48 288.5C96 312 192 359 288 383.2C384 407.3 480 408.7 576 394.7C672 380.7 768 351.3 864 326.5C960 301.7 1056 281.3 1152 272.8C1248 264.3 1344 267.7 1392 269.3L1440 271L1440 701L1392 701C1344 701 1248 701 1152 701C1056 701 960 701 864 701C768 701 672 701 576 701C480 701 384 701 288 701C192 701 96 701 48 701L0 701Z" fill="#5a46d8" stroke-linecap="round" stroke-linejoin="miter"></path></svg>