{
	"asset":{
		"generator":"Khronos glTF Blender I/O v4.1.63",
		"version":"2.0"
	},
	"scene":0,
	"scenes":[
		{
			"name":"Scene",
			"nodes":[
				0
			]
		}
	],
	"nodes":[
		{
			"mesh":0,
			"name":"Text",
			"translation":[
				-3.9193971157073975,
				0.2738412022590637,
				7.064035892486572
			]
		}
	],
	"meshes":[
		{
			"name":"Text",
			"primitives":[
				{
					"attributes":{
						"POSITION":0,
						"NORMAL":1,
						"TEXCOORD_0":2
					},
					"indices":3
				}
			]
		}
	],
	"accessors":[
		{
			"bufferView":0,
			"componentType":5126,
			"count":1285,
			"max":[
				8.427000045776367,
				0,
				0.23000000417232513
			],
			"min":[
				0.06100000441074371,
				0,
				-0.6910000443458557
			],
			"type":"VEC3"
		},
		{
			"bufferView":1,
			"componentType":5126,
			"count":1285,
			"type":"VEC3"
		},
		{
			"bufferView":2,
			"componentType":5126,
			"count":1285,
			"type":"VEC2"
		},
		{
			"bufferView":3,
			"componentType":5123,
			"count":3759,
			"type":"SCALAR"
		}
	],
	"bufferViews":[
		{
			"buffer":0,
			"byteLength":15420,
			"byteOffset":0,
			"target":34962
		},
		{
			"buffer":0,
			"byteLength":15420,
			"byteOffset":15420,
			"target":34962
		},
		{
			"buffer":0,
			"byteLength":10280,
			"byteOffset":30840,
			"target":34962
		},
		{
			"buffer":0,
			"byteLength":7518,
			"byteOffset":41120,
			"target":34963
		}
	],
	"buffers":[
		{
			"byteLength":48640,
			"uri":"circuitboard.bin"
		}
	]
}
