{
	"asset":{
		"generator":"Khronos glTF Blender I/O v4.1.63",
		"version":"2.0"
	},
	"scene":0,
	"scenes":[
		{
			"name":"Scene",
			"nodes":[
				0,
				1,
				2,
				3,
				4,
				5,
				6,
				7,
				8,
				9,
				10,
				11,
				12,
				13,
				14
			]
		}
	],
	"nodes":[
		{
			"mesh":0,
			"name":"Plane",
			"rotation":[
				0.5,
				0.5,
				-0.5,
				0.5
			],
			"scale":[
				0.6499999761581421,
				1,
				1.399999976158142
			],
			"translation":[
				0.7099999189376831,
				-0.07452106475830078,
				0.06631949543952942
			]
		},
		{
			"mesh":1,
			"name":"Cube"
		},
		{
			"mesh":2,
			"name":"Cube.001",
			"scale":[
				0.6000000238418579,
				1,
				1
			],
			"translation":[
				-0.800000011920929,
				10,
				-2.5
			]
		},
		{
			"mesh":3,
			"name":"Cube.002",
			"scale":[
				1,
				0.800000011920929,
				0.5
			],
			"translation":[
				0,
				6,
				6.800000190734863
			]
		},
		{
			"mesh":4,
			"name":"Cube.003",
			"rotation":[
				0.7071068286895752,
				0,
				0,
				0.7071068286895752
			],
			"scale":[
				1,
				1,
				0.5
			],
			"translation":[
				0,
				-14.300000190734863,
				0
			]
		},
		{
			"mesh":5,
			"name":"Cube.004",
			"scale":[
				1,
				0.800000011920929,
				0.5
			],
			"translation":[
				0,
				8,
				6.800000190734863
			]
		},
		{
			"mesh":6,
			"name":"Cube.005",
			"scale":[
				1,
				1.149999976158142,
				0.5
			],
			"translation":[
				0,
				3.5,
				6.800000190734863
			]
		},
		{
			"mesh":7,
			"name":"Cylinder",
			"rotation":[
				0,
				0,
				-0.7071068286895752,
				0.7071068286895752
			],
			"scale":[
				0.44999998807907104,
				0.30000001192092896,
				0.44999998807907104
			],
			"translation":[
				-1.649999976158142,
				10.25,
				-1
			]
		},
		{
			"mesh":8,
			"name":"Cylinder.001",
			"rotation":[
				0,
				0,
				-0.7071068286895752,
				0.7071068286895752
			],
			"scale":[
				1.25,
				0.5,
				1.25
			],
			"translation":[
				-1.399999976158142,
				10.25,
				-1
			]
		},
		{
			"mesh":9,
			"name":"Cylinder.002",
			"rotation":[
				0,
				0,
				-0.7071068286895752,
				0.7071068286895752
			],
			"scale":[
				0.44999998807907104,
				0.30000001192092896,
				0.44999998807907104
			],
			"translation":[
				-1.649999976158142,
				8.5,
				-3.999999761581421
			]
		},
		{
			"mesh":10,
			"name":"Cylinder.003",
			"rotation":[
				0,
				0,
				-0.7071068286895752,
				0.7071068286895752
			],
			"scale":[
				1.25,
				0.5,
				1.25
			],
			"translation":[
				-1.399999976158142,
				8.5,
				-4
			]
		},
		{
			"mesh":11,
			"name":"Cylinder.004",
			"rotation":[
				0,
				0,
				-0.7071068286895752,
				0.7071068286895752
			],
			"scale":[
				1.25,
				0.5,
				1.25
			],
			"translation":[
				-1.399999976158142,
				12,
				-4
			]
		},
		{
			"mesh":12,
			"name":"Cylinder.005",
			"rotation":[
				0,
				0,
				-0.7071068286895752,
				0.7071068286895752
			],
			"scale":[
				0.44999998807907104,
				0.30000001192092896,
				0.44999998807907104
			],
			"translation":[
				-1.649999976158142,
				12,
				-4
			]
		},
		{
			"mesh":13,
			"name":"Cylinder.006",
			"rotation":[
				0,
				0,
				-0.7071068286895752,
				0.7071068286895752
			],
			"scale":[
				0.44999998807907104,
				0.30000001192092896,
				0.44999998807907104
			],
			"translation":[
				-1.350000023841858,
				12.5,
				-0.9999997615814209
			]
		},
		{
			"mesh":14,
			"name":"Cylinder.007",
			"rotation":[
				0,
				0,
				-0.7071068286895752,
				0.7071068286895752
			],
			"scale":[
				0.25,
				0.30000001192092896,
				0.25
			],
			"translation":[
				0.5099999904632568,
				13.799997329711914,
				0
			]
		}
	],
	"materials":[
		{
			"doubleSided":true,
			"name":"ScreenOn",
			"pbrMetallicRoughness":{
				"baseColorTexture":{
					"index":0
				},
				"metallicFactor":0,
				"roughnessFactor":0.5
			}
		},
		{
			"doubleSided":true,
			"name":"Material.001",
			"pbrMetallicRoughness":{
				"baseColorFactor":[
					0.2422795444726944,
					0.23839780688285828,
					0.2195262759923935,
					1
				],
				"metallicFactor":0.5,
				"roughnessFactor":0.5
			}
		},
		{
			"doubleSided":true,
			"name":"Material.002",
			"pbrMetallicRoughness":{
				"baseColorFactor":[
					0.2422795444726944,
					0.23839780688285828,
					0.2195262759923935,
					1
				],
				"metallicFactor":0,
				"roughnessFactor":0.5
			}
		},
		{
			"doubleSided":true,
			"name":"Material.006",
			"pbrMetallicRoughness":{
				"baseColorFactor":[
					0,
					0,
					0,
					1
				],
				"metallicFactor":10
			}
		},
		{
			"doubleSided":true,
			"name":"Material.004",
			"pbrMetallicRoughness":{
				"baseColorFactor":[
					0,
					0.08615712076425552,
					0.3422812819480896,
					2
				],
				"metallicFactor":5,
				"roughnessFactor":0.10000000149011612
			}
		},
		{
			"doubleSided":true,
			"name":"Material.003",
			"pbrMetallicRoughness":{
				"baseColorFactor":[
					0.11696992814540863,
					0.11443548649549484,
					0.10702315717935562,
					1
				],
				"metallicFactor":0,
				"roughnessFactor":0.5
			}
		},
		{
			"doubleSided":true,
			"name":"Material.005",
			"pbrMetallicRoughness":{
				"baseColorFactor":[
					0.11696992814540863,
					0.11443548649549484,
					0.10702315717935562,
					1
				],
				"metallicFactor":0,
				"roughnessFactor":0.5
			}
		},
		{
			"doubleSided":true,
			"name":"Material.007",
			"pbrMetallicRoughness":{
				"baseColorFactor":[
					1,
					1,
					1,
					10
				],
				"metallicFactor":0,
				"roughnessFactor":0
			}
		}
	],
	"meshes":[
		{
			"name":"Plane",
			"primitives":[
				{
					"attributes":{
						"POSITION":0,
						"NORMAL":1,
						"TEXCOORD_0":2
					},
					"indices":3,
					"material":0
				}
			]
		},
		{
			"name":"Cube.001",
			"primitives":[
				{
					"attributes":{
						"POSITION":4,
						"NORMAL":5,
						"TEXCOORD_0":6
					},
					"indices":7,
					"material":1
				}
			]
		},
		{
			"name":"Cube.002",
			"primitives":[
				{
					"attributes":{
						"POSITION":8,
						"NORMAL":9,
						"TEXCOORD_0":10
					},
					"indices":11,
					"material":2
				}
			]
		},
		{
			"name":"Cube.003",
			"primitives":[
				{
					"attributes":{
						"POSITION":12,
						"NORMAL":13,
						"TEXCOORD_0":14
					},
					"indices":15
				}
			]
		},
		{
			"name":"Cube.004",
			"primitives":[
				{
					"attributes":{
						"POSITION":16,
						"NORMAL":17,
						"TEXCOORD_0":18
					},
					"indices":15,
					"material":3
				}
			]
		},
		{
			"name":"Cube.005",
			"primitives":[
				{
					"attributes":{
						"POSITION":19,
						"NORMAL":20,
						"TEXCOORD_0":21
					},
					"indices":15
				}
			]
		},
		{
			"name":"Cube.006",
			"primitives":[
				{
					"attributes":{
						"POSITION":22,
						"NORMAL":23,
						"TEXCOORD_0":24
					},
					"indices":15
				}
			]
		},
		{
			"name":"Cylinder.005",
			"primitives":[
				{
					"attributes":{
						"POSITION":25,
						"NORMAL":26,
						"TEXCOORD_0":27
					},
					"indices":28,
					"material":4
				}
			]
		},
		{
			"name":"Cylinder.001",
			"primitives":[
				{
					"attributes":{
						"POSITION":29,
						"NORMAL":30,
						"TEXCOORD_0":31
					},
					"indices":28,
					"material":5
				}
			]
		},
		{
			"name":"Cylinder.006",
			"primitives":[
				{
					"attributes":{
						"POSITION":32,
						"NORMAL":33,
						"TEXCOORD_0":34
					},
					"indices":28,
					"material":4
				}
			]
		},
		{
			"name":"Cylinder.003",
			"primitives":[
				{
					"attributes":{
						"POSITION":35,
						"NORMAL":36,
						"TEXCOORD_0":37
					},
					"indices":28,
					"material":6
				}
			]
		},
		{
			"name":"Cylinder.004",
			"primitives":[
				{
					"attributes":{
						"POSITION":38,
						"NORMAL":39,
						"TEXCOORD_0":40
					},
					"indices":41,
					"material":5
				}
			]
		},
		{
			"name":"Cylinder.007",
			"primitives":[
				{
					"attributes":{
						"POSITION":42,
						"NORMAL":43,
						"TEXCOORD_0":44
					},
					"indices":28,
					"material":4
				}
			]
		},
		{
			"name":"Cylinder.002",
			"primitives":[
				{
					"attributes":{
						"POSITION":45,
						"NORMAL":46,
						"TEXCOORD_0":47
					},
					"indices":28,
					"material":7
				}
			]
		},
		{
			"name":"Cylinder.008",
			"primitives":[
				{
					"attributes":{
						"POSITION":48,
						"NORMAL":49,
						"TEXCOORD_0":50
					},
					"indices":28,
					"material":7
				}
			]
		}
	],
	"textures":[
		{
			"sampler":0,
			"source":0
		}
	],
	"images":[
		{
			"mimeType":"image/png",
			"name":"Final Light Blur Transparented",
			"uri":"Final%20Light%20Blur%20Transparented.png"
		}
	],
	"accessors":[
		{
			"bufferView":0,
			"componentType":5126,
			"count":4,
			"max":[
				10.158915519714355,
				0,
				10.158915519714355
			],
			"min":[
				-10.158915519714355,
				0,
				-10.158915519714355
			],
			"type":"VEC3"
		},
		{
			"bufferView":1,
			"componentType":5126,
			"count":4,
			"type":"VEC3"
		},
		{
			"bufferView":2,
			"componentType":5126,
			"count":4,
			"type":"VEC2"
		},
		{
			"bufferView":3,
			"componentType":5123,
			"count":6,
			"type":"SCALAR"
		},
		{
			"bufferView":4,
			"componentType":5126,
			"count":5668,
			"max":[
				0.7799999713897705,
				14.739999771118164,
				7.139999866485596
			],
			"min":[
				-0.7799999713897705,
				-14.739999771118164,
				-7.139999866485596
			],
			"type":"VEC3"
		},
		{
			"bufferView":5,
			"componentType":5126,
			"count":5668,
			"type":"VEC3"
		},
		{
			"bufferView":6,
			"componentType":5126,
			"count":5668,
			"type":"VEC2"
		},
		{
			"bufferView":7,
			"componentType":5123,
			"count":9732,
			"type":"SCALAR"
		},
		{
			"bufferView":8,
			"componentType":5126,
			"count":2424,
			"max":[
				1,
				3.819999933242798,
				3.6700000762939453
			],
			"min":[
				-1,
				-3.819999933242798,
				-3.6700000762939453
			],
			"type":"VEC3"
		},
		{
			"bufferView":9,
			"componentType":5126,
			"count":2424,
			"type":"VEC3"
		},
		{
			"bufferView":10,
			"componentType":5126,
			"count":2424,
			"type":"VEC2"
		},
		{
			"bufferView":11,
			"componentType":5123,
			"count":4836,
			"type":"SCALAR"
		},
		{
			"bufferView":12,
			"componentType":5126,
			"count":1704,
			"max":[
				0.2800000011920929,
				1,
				1
			],
			"min":[
				-0.2800000011920929,
				-1,
				-1
			],
			"type":"VEC3"
		},
		{
			"bufferView":13,
			"componentType":5126,
			"count":1704,
			"type":"VEC3"
		},
		{
			"bufferView":14,
			"componentType":5126,
			"count":1704,
			"type":"VEC2"
		},
		{
			"bufferView":15,
			"componentType":5123,
			"count":3396,
			"type":"SCALAR"
		},
		{
			"bufferView":16,
			"componentType":5126,
			"count":1704,
			"max":[
				0.2800000011920929,
				1,
				1
			],
			"min":[
				-0.2800000011920929,
				-1,
				-1
			],
			"type":"VEC3"
		},
		{
			"bufferView":17,
			"componentType":5126,
			"count":1704,
			"type":"VEC3"
		},
		{
			"bufferView":18,
			"componentType":5126,
			"count":1704,
			"type":"VEC2"
		},
		{
			"bufferView":19,
			"componentType":5126,
			"count":1704,
			"max":[
				0.2800000011920929,
				1,
				1
			],
			"min":[
				-0.2800000011920929,
				-1,
				-1
			],
			"type":"VEC3"
		},
		{
			"bufferView":20,
			"componentType":5126,
			"count":1704,
			"type":"VEC3"
		},
		{
			"bufferView":21,
			"componentType":5126,
			"count":1704,
			"type":"VEC2"
		},
		{
			"bufferView":22,
			"componentType":5126,
			"count":1704,
			"max":[
				0.2800000011920929,
				1,
				1
			],
			"min":[
				-0.2800000011920929,
				-1,
				-1
			],
			"type":"VEC3"
		},
		{
			"bufferView":23,
			"componentType":5126,
			"count":1704,
			"type":"VEC3"
		},
		{
			"bufferView":24,
			"componentType":5126,
			"count":1704,
			"type":"VEC2"
		},
		{
			"bufferView":25,
			"componentType":5126,
			"count":192,
			"max":[
				1,
				1,
				1
			],
			"min":[
				-1,
				-1,
				-1
			],
			"type":"VEC3"
		},
		{
			"bufferView":26,
			"componentType":5126,
			"count":192,
			"type":"VEC3"
		},
		{
			"bufferView":27,
			"componentType":5126,
			"count":192,
			"type":"VEC2"
		},
		{
			"bufferView":28,
			"componentType":5123,
			"count":372,
			"type":"SCALAR"
		},
		{
			"bufferView":29,
			"componentType":5126,
			"count":192,
			"max":[
				1,
				1,
				1
			],
			"min":[
				-1,
				-1,
				-1
			],
			"type":"VEC3"
		},
		{
			"bufferView":30,
			"componentType":5126,
			"count":192,
			"type":"VEC3"
		},
		{
			"bufferView":31,
			"componentType":5126,
			"count":192,
			"type":"VEC2"
		},
		{
			"bufferView":32,
			"componentType":5126,
			"count":192,
			"max":[
				1,
				1,
				1
			],
			"min":[
				-1,
				-1,
				-1
			],
			"type":"VEC3"
		},
		{
			"bufferView":33,
			"componentType":5126,
			"count":192,
			"type":"VEC3"
		},
		{
			"bufferView":34,
			"componentType":5126,
			"count":192,
			"type":"VEC2"
		},
		{
			"bufferView":35,
			"componentType":5126,
			"count":192,
			"max":[
				1,
				1,
				1
			],
			"min":[
				-1,
				-1,
				-1
			],
			"type":"VEC3"
		},
		{
			"bufferView":36,
			"componentType":5126,
			"count":192,
			"type":"VEC3"
		},
		{
			"bufferView":37,
			"componentType":5126,
			"count":192,
			"type":"VEC2"
		},
		{
			"bufferView":38,
			"componentType":5126,
			"count":384,
			"max":[
				1,
				1,
				1
			],
			"min":[
				-1,
				-1,
				-1
			],
			"type":"VEC3"
		},
		{
			"bufferView":39,
			"componentType":5126,
			"count":384,
			"type":"VEC3"
		},
		{
			"bufferView":40,
			"componentType":5126,
			"count":384,
			"type":"VEC2"
		},
		{
			"bufferView":41,
			"componentType":5123,
			"count":756,
			"type":"SCALAR"
		},
		{
			"bufferView":42,
			"componentType":5126,
			"count":192,
			"max":[
				1,
				1,
				1
			],
			"min":[
				-1,
				-1,
				-1
			],
			"type":"VEC3"
		},
		{
			"bufferView":43,
			"componentType":5126,
			"count":192,
			"type":"VEC3"
		},
		{
			"bufferView":44,
			"componentType":5126,
			"count":192,
			"type":"VEC2"
		},
		{
			"bufferView":45,
			"componentType":5126,
			"count":192,
			"max":[
				1,
				1,
				1
			],
			"min":[
				-1,
				-1,
				-1
			],
			"type":"VEC3"
		},
		{
			"bufferView":46,
			"componentType":5126,
			"count":192,
			"type":"VEC3"
		},
		{
			"bufferView":47,
			"componentType":5126,
			"count":192,
			"type":"VEC2"
		},
		{
			"bufferView":48,
			"componentType":5126,
			"count":192,
			"max":[
				1,
				1,
				1
			],
			"min":[
				-1,
				-1,
				-1
			],
			"type":"VEC3"
		},
		{
			"bufferView":49,
			"componentType":5126,
			"count":192,
			"type":"VEC3"
		},
		{
			"bufferView":50,
			"componentType":5126,
			"count":192,
			"type":"VEC2"
		}
	],
	"bufferViews":[
		{
			"buffer":0,
			"byteLength":48,
			"byteOffset":0,
			"target":34962
		},
		{
			"buffer":0,
			"byteLength":48,
			"byteOffset":48,
			"target":34962
		},
		{
			"buffer":0,
			"byteLength":32,
			"byteOffset":96,
			"target":34962
		},
		{
			"buffer":0,
			"byteLength":12,
			"byteOffset":128,
			"target":34963
		},
		{
			"buffer":0,
			"byteLength":68016,
			"byteOffset":140,
			"target":34962
		},
		{
			"buffer":0,
			"byteLength":68016,
			"byteOffset":68156,
			"target":34962
		},
		{
			"buffer":0,
			"byteLength":45344,
			"byteOffset":136172,
			"target":34962
		},
		{
			"buffer":0,
			"byteLength":19464,
			"byteOffset":181516,
			"target":34963
		},
		{
			"buffer":0,
			"byteLength":29088,
			"byteOffset":200980,
			"target":34962
		},
		{
			"buffer":0,
			"byteLength":29088,
			"byteOffset":230068,
			"target":34962
		},
		{
			"buffer":0,
			"byteLength":19392,
			"byteOffset":259156,
			"target":34962
		},
		{
			"buffer":0,
			"byteLength":9672,
			"byteOffset":278548,
			"target":34963
		},
		{
			"buffer":0,
			"byteLength":20448,
			"byteOffset":288220,
			"target":34962
		},
		{
			"buffer":0,
			"byteLength":20448,
			"byteOffset":308668,
			"target":34962
		},
		{
			"buffer":0,
			"byteLength":13632,
			"byteOffset":329116,
			"target":34962
		},
		{
			"buffer":0,
			"byteLength":6792,
			"byteOffset":342748,
			"target":34963
		},
		{
			"buffer":0,
			"byteLength":20448,
			"byteOffset":349540,
			"target":34962
		},
		{
			"buffer":0,
			"byteLength":20448,
			"byteOffset":369988,
			"target":34962
		},
		{
			"buffer":0,
			"byteLength":13632,
			"byteOffset":390436,
			"target":34962
		},
		{
			"buffer":0,
			"byteLength":20448,
			"byteOffset":404068,
			"target":34962
		},
		{
			"buffer":0,
			"byteLength":20448,
			"byteOffset":424516,
			"target":34962
		},
		{
			"buffer":0,
			"byteLength":13632,
			"byteOffset":444964,
			"target":34962
		},
		{
			"buffer":0,
			"byteLength":20448,
			"byteOffset":458596,
			"target":34962
		},
		{
			"buffer":0,
			"byteLength":20448,
			"byteOffset":479044,
			"target":34962
		},
		{
			"buffer":0,
			"byteLength":13632,
			"byteOffset":499492,
			"target":34962
		},
		{
			"buffer":0,
			"byteLength":2304,
			"byteOffset":513124,
			"target":34962
		},
		{
			"buffer":0,
			"byteLength":2304,
			"byteOffset":515428,
			"target":34962
		},
		{
			"buffer":0,
			"byteLength":1536,
			"byteOffset":517732,
			"target":34962
		},
		{
			"buffer":0,
			"byteLength":744,
			"byteOffset":519268,
			"target":34963
		},
		{
			"buffer":0,
			"byteLength":2304,
			"byteOffset":520012,
			"target":34962
		},
		{
			"buffer":0,
			"byteLength":2304,
			"byteOffset":522316,
			"target":34962
		},
		{
			"buffer":0,
			"byteLength":1536,
			"byteOffset":524620,
			"target":34962
		},
		{
			"buffer":0,
			"byteLength":2304,
			"byteOffset":526156,
			"target":34962
		},
		{
			"buffer":0,
			"byteLength":2304,
			"byteOffset":528460,
			"target":34962
		},
		{
			"buffer":0,
			"byteLength":1536,
			"byteOffset":530764,
			"target":34962
		},
		{
			"buffer":0,
			"byteLength":2304,
			"byteOffset":532300,
			"target":34962
		},
		{
			"buffer":0,
			"byteLength":2304,
			"byteOffset":534604,
			"target":34962
		},
		{
			"buffer":0,
			"byteLength":1536,
			"byteOffset":536908,
			"target":34962
		},
		{
			"buffer":0,
			"byteLength":4608,
			"byteOffset":538444,
			"target":34962
		},
		{
			"buffer":0,
			"byteLength":4608,
			"byteOffset":543052,
			"target":34962
		},
		{
			"buffer":0,
			"byteLength":3072,
			"byteOffset":547660,
			"target":34962
		},
		{
			"buffer":0,
			"byteLength":1512,
			"byteOffset":550732,
			"target":34963
		},
		{
			"buffer":0,
			"byteLength":2304,
			"byteOffset":552244,
			"target":34962
		},
		{
			"buffer":0,
			"byteLength":2304,
			"byteOffset":554548,
			"target":34962
		},
		{
			"buffer":0,
			"byteLength":1536,
			"byteOffset":556852,
			"target":34962
		},
		{
			"buffer":0,
			"byteLength":2304,
			"byteOffset":558388,
			"target":34962
		},
		{
			"buffer":0,
			"byteLength":2304,
			"byteOffset":560692,
			"target":34962
		},
		{
			"buffer":0,
			"byteLength":1536,
			"byteOffset":562996,
			"target":34962
		},
		{
			"buffer":0,
			"byteLength":2304,
			"byteOffset":564532,
			"target":34962
		},
		{
			"buffer":0,
			"byteLength":2304,
			"byteOffset":566836,
			"target":34962
		},
		{
			"buffer":0,
			"byteLength":1536,
			"byteOffset":569140,
			"target":34962
		}
	],
	"samplers":[
		{
			"magFilter":9729,
			"minFilter":9987
		}
	],
	"buffers":[
		{
			"byteLength":570676,
			"uri":"Iphone14withScreen.bin"
		}
	]
}
